<?xml version="1.0" encoding="utf-8"?>
<!-- Generator: Adobe Illustrator 23.0.5, SVG Export Plug-In . SVG Version: 6.00 Build 0)  -->
<svg version="1.1" id="Layer_1" xmlns="http://www.w3.org/2000/svg" xmlns:xlink="http://www.w3.org/1999/xlink" x="0px" y="0px"
	 viewBox="0 0 396 288" style="enable-background:new 0 0 396 288;" xml:space="preserve">
<style type="text/css">
	.st0{opacity:0.4;}
	.st1{fill:url(#SVGID_1_);}
	.st2{fill:url(#SVGID_2_);}
	.st3{fill:url(#SVGID_3_);}
	.st4{fill:url(#SVGID_4_);}
	.st5{fill:url(#SVGID_5_);}
	.st6{fill:url(#SVGID_6_);}
	.st7{fill:url(#SVGID_7_);}
	.st8{fill:url(#SVGID_8_);}
	.st9{fill:url(#SVGID_9_);}
	.st10{fill:url(#SVGID_10_);}
	.st11{fill:url(#SVGID_11_);}
	.st12{fill:url(#SVGID_12_);}
	.st13{fill:url(#SVGID_13_);}
	.st14{fill:url(#SVGID_14_);}
	.st15{fill:url(#SVGID_15_);}
	.st16{opacity:0.4;fill:url(#SVGID_16_);enable-background:new    ;}
	.st17{opacity:0.4;fill:url(#SVGID_17_);enable-background:new    ;}
	.st18{opacity:0.4;fill:url(#SVGID_18_);enable-background:new    ;}
	.st19{opacity:0.4;fill:url(#SVGID_19_);enable-background:new    ;}
	.st20{opacity:0.4;fill:url(#SVGID_20_);enable-background:new    ;}
	.st21{opacity:0.4;fill:url(#SVGID_21_);enable-background:new    ;}
	.st22{opacity:0.4;fill:url(#SVGID_22_);enable-background:new    ;}
	.st23{opacity:0.4;fill:url(#SVGID_23_);enable-background:new    ;}
	.st24{opacity:0.4;fill:url(#SVGID_24_);enable-background:new    ;}
	.st25{opacity:0.4;fill:url(#SVGID_25_);enable-background:new    ;}
	.st26{opacity:0.4;fill:url(#SVGID_26_);enable-background:new    ;}
	.st27{opacity:0.4;fill:url(#SVGID_27_);enable-background:new    ;}
	.st28{opacity:0.4;fill:url(#SVGID_28_);enable-background:new    ;}
	.st29{opacity:0.4;fill:url(#SVGID_29_);enable-background:new    ;}
	.st30{opacity:0.4;fill:url(#SVGID_30_);enable-background:new    ;}
	.st31{opacity:0.4;fill:url(#SVGID_31_);enable-background:new    ;}
	.st32{opacity:0.4;fill:url(#SVGID_32_);enable-background:new    ;}
	.st33{opacity:0.4;fill:url(#SVGID_33_);enable-background:new    ;}
	.st34{opacity:0.4;fill:url(#SVGID_34_);enable-background:new    ;}
	.st35{opacity:0.4;fill:url(#SVGID_35_);enable-background:new    ;}
	.st36{opacity:0.4;fill:url(#SVGID_36_);enable-background:new    ;}
	.st37{opacity:0.4;fill:url(#SVGID_37_);enable-background:new    ;}
	.st38{opacity:0.4;fill:url(#SVGID_38_);enable-background:new    ;}
	.st39{opacity:0.4;fill:url(#SVGID_39_);enable-background:new    ;}
	.st40{opacity:0.4;fill:url(#SVGID_40_);enable-background:new    ;}
	.st41{opacity:0.4;fill:url(#SVGID_41_);enable-background:new    ;}
	.st42{opacity:0.4;fill:url(#SVGID_42_);enable-background:new    ;}
	.st43{opacity:0.4;fill:url(#SVGID_43_);enable-background:new    ;}
	.st44{opacity:0.4;fill:url(#SVGID_44_);enable-background:new    ;}
	.st45{opacity:0.4;fill:url(#SVGID_45_);enable-background:new    ;}
	.st46{opacity:0.4;fill:url(#SVGID_46_);enable-background:new    ;}
	.st47{fill:url(#SVGID_47_);}
	.st48{fill:url(#SVGID_48_);}
	.st49{fill:url(#SVGID_49_);}
	.st50{fill:url(#SVGID_50_);}
	.st51{fill:url(#SVGID_51_);}
	.st52{fill:url(#SVGID_52_);}
	.st53{fill:url(#SVGID_53_);}
	.st54{fill:url(#SVGID_54_);}
	.st55{fill:url(#SVGID_55_);}
	.st56{fill:url(#SVGID_56_);}
	.st57{fill:url(#SVGID_57_);}
	.st58{fill:url(#SVGID_58_);}
	.st59{fill:url(#SVGID_59_);}
	.st60{fill:url(#SVGID_60_);}
	.st61{fill:url(#SVGID_61_);}
	.st62{opacity:0.4;fill:url(#SVGID_62_);enable-background:new    ;}
	.st63{opacity:0.4;fill:url(#SVGID_63_);enable-background:new    ;}
	.st64{opacity:0.4;fill:url(#SVGID_64_);enable-background:new    ;}
	.st65{opacity:0.4;fill:url(#SVGID_65_);enable-background:new    ;}
	.st66{opacity:0.4;fill:url(#SVGID_66_);enable-background:new    ;}
	.st67{opacity:0.4;fill:url(#SVGID_67_);enable-background:new    ;}
	.st68{opacity:0.4;fill:url(#SVGID_68_);enable-background:new    ;}
	.st69{opacity:0.4;fill:url(#SVGID_69_);enable-background:new    ;}
	.st70{opacity:0.4;fill:url(#SVGID_70_);enable-background:new    ;}
	.st71{opacity:0.4;fill:url(#SVGID_71_);enable-background:new    ;}
	.st72{opacity:0.4;fill:url(#SVGID_72_);enable-background:new    ;}
	.st73{opacity:0.4;fill:url(#SVGID_73_);enable-background:new    ;}
	.st74{opacity:0.4;fill:url(#SVGID_74_);enable-background:new    ;}
	.st75{opacity:0.4;fill:url(#SVGID_75_);enable-background:new    ;}
	.st76{opacity:0.4;fill:url(#SVGID_76_);enable-background:new    ;}
	.st77{opacity:0.4;fill:url(#SVGID_77_);enable-background:new    ;}
	.st78{opacity:0.4;fill:url(#SVGID_78_);enable-background:new    ;}
	.st79{opacity:0.4;fill:url(#SVGID_79_);enable-background:new    ;}
	.st80{opacity:0.4;fill:url(#SVGID_80_);enable-background:new    ;}
	.st81{opacity:0.4;fill:url(#SVGID_81_);enable-background:new    ;}
	.st82{opacity:0.4;fill:url(#SVGID_82_);enable-background:new    ;}
	.st83{opacity:0.4;fill:url(#SVGID_83_);enable-background:new    ;}
	.st84{opacity:0.4;fill:url(#SVGID_84_);enable-background:new    ;}
	.st85{opacity:0.4;fill:url(#SVGID_85_);enable-background:new    ;}
</style>
<g class="st0">
	
		<linearGradient id="SVGID_1_" gradientUnits="userSpaceOnUse" x1="773.072" y1="-280.1885" x2="546.9614" y2="68.9257" gradientTransform="matrix(-1 0 0 -1 586.1 289.2)">
		<stop  offset="0" style="stop-color:#52BBE8"/>
		<stop  offset="0.196" style="stop-color:#69C3EB"/>
		<stop  offset="0.6037" style="stop-color:#A3D8F1"/>
		<stop  offset="1" style="stop-color:#E1EFF8"/>
	</linearGradient>
	<path class="st1" d="M84.8,171.2L84.8,171.2v25.7l-22.2,12.8l0,0l-22.2-12.8l0,0v-25.7l22.2-12.8l0,0L84.8,171.2z M40.6,196.8
		l22,12.7l22-12.7v-25.5l-22-12.7l-22,12.7V196.8z"/>
</g>
<g class="st0">
	
		<linearGradient id="SVGID_2_" gradientUnits="userSpaceOnUse" x1="691.9698" y1="-74.0894" x2="465.859" y2="275.0252" gradientTransform="matrix(-1 0 0 -1 586.1 289.2)">
		<stop  offset="0" style="stop-color:#52BBE8"/>
		<stop  offset="0.196" style="stop-color:#69C3EB"/>
		<stop  offset="0.6037" style="stop-color:#A3D8F1"/>
		<stop  offset="1" style="stop-color:#E1EFF8"/>
	</linearGradient>
	<path class="st2" d="M106.9,56.2L106.9,56.2v25.7L84.7,94.7l0,0L62.5,81.9l0,0V56.2l22.2-12.8l0,0L106.9,56.2z M62.7,81.8l22,12.7
		l22-12.7V56.3l-22-12.7l-22,12.7V81.8z"/>
</g>
<g class="st0">
	
		<linearGradient id="SVGID_3_" gradientUnits="userSpaceOnUse" x1="703.08" y1="-18.7211" x2="476.969" y2="330.3937" gradientTransform="matrix(-1 0 0 -1 586.1 289.2)">
		<stop  offset="0" style="stop-color:#52BBE8"/>
		<stop  offset="0.196" style="stop-color:#69C3EB"/>
		<stop  offset="0.6037" style="stop-color:#A3D8F1"/>
		<stop  offset="1" style="stop-color:#E1EFF8"/>
	</linearGradient>
	<path class="st3" d="M84.8,17.8L84.8,17.8v25.7L62.6,56.3l0,0L40.4,43.5l0,0V17.8L62.6,5l0,0L84.8,17.8z M40.6,43.4l22,12.7
		l22-12.7V17.9l-22-12.7l-22,12.7V43.4z"/>
</g>
<g class="st0">
	
		<linearGradient id="SVGID_4_" gradientUnits="userSpaceOnUse" x1="645.6886" y1="1.492" x2="419.5777" y2="350.6066" gradientTransform="matrix(-1 0 0 -1 586.1 289.2)">
		<stop  offset="0" style="stop-color:#52BBE8"/>
		<stop  offset="0.196" style="stop-color:#69C3EB"/>
		<stop  offset="0.6037" style="stop-color:#A3D8F1"/>
		<stop  offset="1" style="stop-color:#E1EFF8"/>
	</linearGradient>
	<path class="st4" d="M129.1,17.8L129.1,17.8v25.7l-22.2,12.8l0,0L84.7,43.5l0,0V17.8L106.9,5l0,0L129.1,17.8z M84.9,43.4l22,12.7
		l22-12.7V17.9l-22-12.7l-22,12.7V43.4z"/>
</g>
<g class="st0">
	
		<linearGradient id="SVGID_5_" gradientUnits="userSpaceOnUse" x1="588.2973" y1="21.7049" x2="362.1863" y2="370.8197" gradientTransform="matrix(-1 0 0 -1 586.1 289.2)">
		<stop  offset="0" style="stop-color:#52BBE8"/>
		<stop  offset="0.196" style="stop-color:#69C3EB"/>
		<stop  offset="0.6037" style="stop-color:#A3D8F1"/>
		<stop  offset="1" style="stop-color:#E1EFF8"/>
	</linearGradient>
	<path class="st5" d="M173.4,17.8L173.4,17.8v25.7l-22.2,12.8l0,0L129,43.5l0,0V17.8L151.2,5l0,0L173.4,17.8z M129.1,43.4l22,12.7
		l22-12.7V17.9l-22-12.7l-22,12.7V43.4z"/>
</g>
<g class="st0">
	
		<linearGradient id="SVGID_6_" gradientUnits="userSpaceOnUse" x1="531.0356" y1="41.872" x2="304.9247" y2="390.9869" gradientTransform="matrix(-1 0 0 -1 586.1 289.2)">
		<stop  offset="0" style="stop-color:#52BBE8"/>
		<stop  offset="0.196" style="stop-color:#69C3EB"/>
		<stop  offset="0.6037" style="stop-color:#A3D8F1"/>
		<stop  offset="1" style="stop-color:#E1EFF8"/>
	</linearGradient>
	<path class="st6" d="M217.6,17.8L217.6,17.8v25.7l-22.2,12.8l0,0l-22.2-12.8l0,0V17.8L195.4,5l0,0L217.6,17.8z M173.4,43.4l22,12.7
		l22-12.7V17.9l-22-12.7l-22,12.7V43.4z"/>
</g>
<g class="st0">
	
		<linearGradient id="SVGID_7_" gradientUnits="userSpaceOnUse" x1="1278.8199" y1="-235.9797" x2="1052.7092" y2="113.1348" gradientTransform="matrix(1 0 0 1 -1021.4447 -0.8)">
		<stop  offset="0" style="stop-color:#52BBE8"/>
		<stop  offset="0.196" style="stop-color:#69C3EB"/>
		<stop  offset="0.6037" style="stop-color:#A3D8F1"/>
		<stop  offset="1" style="stop-color:#E1EFF8"/>
	</linearGradient>
	<polygon class="st7" points="12.8,159.2 12.8,158 26.3,150.2 26.3,117.5 12.8,109.7 12.8,108.5 27.3,116.9 27.3,150.8 	"/>
</g>
<g class="st0">
	
		<linearGradient id="SVGID_8_" gradientUnits="userSpaceOnUse" x1="759.2362" y1="-197.8183" x2="533.1253" y2="151.2965" gradientTransform="matrix(-1 0 0 -1 586.1 289.2)">
		<stop  offset="0" style="stop-color:#52BBE8"/>
		<stop  offset="0.196" style="stop-color:#69C3EB"/>
		<stop  offset="0.6037" style="stop-color:#A3D8F1"/>
		<stop  offset="1" style="stop-color:#E1EFF8"/>
	</linearGradient>
	<path class="st8" d="M85,116.9v33.9l-29.4,16.9l-29.4-16.9v-33.9L55.6,100L85,116.9z M27.3,150.2l28.3,16.4L84,150.2v-32.7
		l-28.4-16.4l-28.4,16.4v32.7H27.3z"/>
</g>
<g class="st0">
	
		<linearGradient id="SVGID_9_" gradientUnits="userSpaceOnUse" x1="684.4849" y1="-171.4911" x2="458.3739" y2="177.6238" gradientTransform="matrix(-1 0 0 -1 586.1 289.2)">
		<stop  offset="0" style="stop-color:#52BBE8"/>
		<stop  offset="0.196" style="stop-color:#69C3EB"/>
		<stop  offset="0.6037" style="stop-color:#A3D8F1"/>
		<stop  offset="1" style="stop-color:#E1EFF8"/>
	</linearGradient>
	<path class="st9" d="M142.7,116.9v33.9l-29.4,16.9l-29.4-16.9v-33.9l29.4-16.9L142.7,116.9z M85,150.2l28.4,16.4l28.3-16.4v-32.7
		l-28.4-16.4l-28.4,16.4L85,150.2L85,150.2z"/>
</g>
<g class="st0">
	
		<linearGradient id="SVGID_10_" gradientUnits="userSpaceOnUse" x1="1266.0592" y1="-244.2434" x2="1039.9484" y2="104.8711" gradientTransform="matrix(1 0 0 1 -1021.4447 -0.8)">
		<stop  offset="0" style="stop-color:#52BBE8"/>
		<stop  offset="0.196" style="stop-color:#69C3EB"/>
		<stop  offset="0.6037" style="stop-color:#A3D8F1"/>
		<stop  offset="1" style="stop-color:#E1EFF8"/>
	</linearGradient>
	<polygon class="st10" points="26.8,117.8 12.8,109.7 12.8,108.5 26.8,116.6 55.1,100.2 55.1,67.5 26.8,51.1 12.8,59.2 12.8,58.1 
		26.8,50 56.1,66.9 56.1,100.8 	"/>
</g>
<g class="st0">
	
		<linearGradient id="SVGID_11_" gradientUnits="userSpaceOnUse" x1="699.1113" y1="-99.4527" x2="473.0006" y2="249.6617" gradientTransform="matrix(-1 0 0 -1 586.1 289.2)">
		<stop  offset="0" style="stop-color:#52BBE8"/>
		<stop  offset="0.196" style="stop-color:#69C3EB"/>
		<stop  offset="0.6037" style="stop-color:#A3D8F1"/>
		<stop  offset="1" style="stop-color:#E1EFF8"/>
	</linearGradient>
	<path class="st11" d="M113.8,66.9v33.9l-29.4,16.9L55,100.8V66.9L84.4,50L113.8,66.9z M56.1,100.2l28.4,16.4l28.3-16.4V67.5
		L84.4,51.1L56,67.5L56.1,100.2L56.1,100.2z"/>
</g>
<g class="st0">
	
		<linearGradient id="SVGID_12_" gradientUnits="userSpaceOnUse" x1="624.36" y1="-73.1256" x2="398.2494" y2="275.9888" gradientTransform="matrix(-1 0 0 -1 586.1 289.2)">
		<stop  offset="0" style="stop-color:#52BBE8"/>
		<stop  offset="0.196" style="stop-color:#69C3EB"/>
		<stop  offset="0.6037" style="stop-color:#A3D8F1"/>
		<stop  offset="1" style="stop-color:#E1EFF8"/>
	</linearGradient>
	<path class="st12" d="M171.5,66.9v33.9l-29.4,16.9l-29.4-16.9V66.9L142.1,50L171.5,66.9z M113.8,100.2l28.4,16.4l28.3-16.4V67.5
		l-28.4-16.4l-28.4,16.4v32.7H113.8z"/>
</g>
<g class="st0">
	
		<linearGradient id="SVGID_13_" gradientUnits="userSpaceOnUse" x1="1233.2375" y1="-265.5005" x2="1007.1273" y2="83.6132" gradientTransform="matrix(1 0 0 1 -1021.4447 -0.8)">
		<stop  offset="0" style="stop-color:#52BBE8"/>
		<stop  offset="0.196" style="stop-color:#69C3EB"/>
		<stop  offset="0.6037" style="stop-color:#A3D8F1"/>
		<stop  offset="1" style="stop-color:#E1EFF8"/>
	</linearGradient>
	<polygon class="st13" points="12.8,59.2 12.8,58.1 26.3,50.3 26.3,17.5 12.8,9.7 12.8,8.6 27.3,17 27.3,50.9 	"/>
</g>
<g class="st0">
	
		<linearGradient id="SVGID_14_" gradientUnits="userSpaceOnUse" x1="713.6545" y1="-27.54" x2="487.5434" y2="321.5749" gradientTransform="matrix(-1 0 0 -1 586.1 289.2)">
		<stop  offset="0" style="stop-color:#52BBE8"/>
		<stop  offset="0.196" style="stop-color:#69C3EB"/>
		<stop  offset="0.6037" style="stop-color:#A3D8F1"/>
		<stop  offset="1" style="stop-color:#E1EFF8"/>
	</linearGradient>
	<path class="st14" d="M85,17v33.9L55.6,67.8L26.2,50.9V17L55.6,0L85,17z M27.3,50.3l28.3,16.3L84,50.2V17.5L55.6,1.2L27.2,17.6
		v32.7H27.3z"/>
</g>
<g class="st0">
	
		<linearGradient id="SVGID_15_" gradientUnits="userSpaceOnUse" x1="638.9031" y1="-1.2128" x2="412.7921" y2="347.902" gradientTransform="matrix(-1 0 0 -1 586.1 289.2)">
		<stop  offset="0" style="stop-color:#52BBE8"/>
		<stop  offset="0.196" style="stop-color:#69C3EB"/>
		<stop  offset="0.6037" style="stop-color:#A3D8F1"/>
		<stop  offset="1" style="stop-color:#E1EFF8"/>
	</linearGradient>
	<path class="st15" d="M142.7,17v33.9l-29.4,16.9L83.9,50.9V17l29.4-16.9L142.7,17z M85,50.3l28.4,16.4l28.4-16.4V17.6L113.4,1.2
		L85,17.6V50.3z"/>
</g>
<linearGradient id="SVGID_16_" gradientUnits="userSpaceOnUse" x1="1355.1167" y1="-186.5575" x2="1129.0085" y2="162.5526" gradientTransform="matrix(1 0 0 1 -1021.4447 -0.8)">
	<stop  offset="0" style="stop-color:#52BBE8"/>
	<stop  offset="0.196" style="stop-color:#69C3EB"/>
	<stop  offset="0.6037" style="stop-color:#A3D8F1"/>
	<stop  offset="1" style="stop-color:#E1EFF8"/>
</linearGradient>
<path class="st16" d="M84.8,195.3c0.9,0,1.6,0.7,1.6,1.6s-0.7,1.6-1.6,1.6s-1.6-0.7-1.6-1.6S83.9,195.3,84.8,195.3z"/>
<linearGradient id="SVGID_17_" gradientUnits="userSpaceOnUse" x1="1471.9896" y1="-110.87" x2="1245.8785" y2="238.2449" gradientTransform="matrix(1 0 0 1 -1021.4447 -0.8)">
	<stop  offset="0" style="stop-color:#52BBE8"/>
	<stop  offset="0.196" style="stop-color:#69C3EB"/>
	<stop  offset="0.6037" style="stop-color:#A3D8F1"/>
	<stop  offset="1" style="stop-color:#E1EFF8"/>
</linearGradient>
<path class="st17" d="M217.6,247.7c0.1,0,0.3,0.1,0.3,0.3c0,0.1-0.1,0.3-0.3,0.3c-0.1,0-0.3-0.1-0.3-0.3S217.5,247.7,217.6,247.7z"
	/>
<linearGradient id="SVGID_18_" gradientUnits="userSpaceOnUse" x1="1322.0055" y1="-208.0109" x2="1095.894" y2="141.1047" gradientTransform="matrix(1 0 0 1 -1021.4447 -0.8)">
	<stop  offset="0" style="stop-color:#52BBE8"/>
	<stop  offset="0.196" style="stop-color:#69C3EB"/>
	<stop  offset="0.6037" style="stop-color:#A3D8F1"/>
	<stop  offset="1" style="stop-color:#E1EFF8"/>
</linearGradient>
<path class="st18" d="M62.6,160.6c-1.1,0-2-0.9-2-2s0.9-2,2-2s2,0.9,2,2S63.7,160.6,62.6,160.6z"/>
<linearGradient id="SVGID_19_" gradientUnits="userSpaceOnUse" x1="1312.2284" y1="-214.3373" x2="1086.1194" y2="134.7744" gradientTransform="matrix(1 0 0 1 -1021.4447 -0.8)">
	<stop  offset="0" style="stop-color:#52BBE8"/>
	<stop  offset="0.196" style="stop-color:#69C3EB"/>
	<stop  offset="0.6037" style="stop-color:#A3D8F1"/>
	<stop  offset="1" style="stop-color:#E1EFF8"/>
</linearGradient>
<circle class="st19" cx="40.5" cy="171.3" r="1.3"/>
<linearGradient id="SVGID_20_" gradientUnits="userSpaceOnUse" x1="1323.8978" y1="-206.7769" x2="1097.7898" y2="142.3333" gradientTransform="matrix(1 0 0 1 -1021.4447 -0.8)">
	<stop  offset="0" style="stop-color:#52BBE8"/>
	<stop  offset="0.196" style="stop-color:#69C3EB"/>
	<stop  offset="0.6037" style="stop-color:#A3D8F1"/>
	<stop  offset="1" style="stop-color:#E1EFF8"/>
</linearGradient>
<path class="st20" d="M40.5,195.9c0.5,0,1,0.4,1,1c0,0.5-0.4,1-1,1s-1-0.4-1-1S39.9,195.9,40.5,195.9z"/>
<linearGradient id="SVGID_21_" gradientUnits="userSpaceOnUse" x1="1345.2756" y1="-192.94" x2="1119.1643" y2="156.1755" gradientTransform="matrix(1 0 0 1 -1021.4447 -0.8)">
	<stop  offset="0" style="stop-color:#52BBE8"/>
	<stop  offset="0.196" style="stop-color:#69C3EB"/>
	<stop  offset="0.6037" style="stop-color:#A3D8F1"/>
	<stop  offset="1" style="stop-color:#E1EFF8"/>
</linearGradient>
<circle class="st21" cx="62.6" cy="209.6" r="3"/>
<linearGradient id="SVGID_22_" gradientUnits="userSpaceOnUse" x1="1343.441" y1="-194.1307" x2="1117.3285" y2="154.9867" gradientTransform="matrix(1 0 0 1 -1021.4447 -0.8)">
	<stop  offset="0" style="stop-color:#52BBE8"/>
	<stop  offset="0.196" style="stop-color:#69C3EB"/>
	<stop  offset="0.6037" style="stop-color:#A3D8F1"/>
	<stop  offset="1" style="stop-color:#E1EFF8"/>
</linearGradient>
<path class="st22" d="M84.8,168.8c1.4,0,2.5,1.1,2.5,2.5c0,1.4-1.1,2.5-2.5,2.5s-2.5-1.1-2.5-2.5C82.3,169.9,83.4,168.8,84.8,168.8z
	"/>
<linearGradient id="SVGID_23_" gradientUnits="userSpaceOnUse" x1="1287.0105" y1="-230.6788" x2="1060.8976" y2="118.439" gradientTransform="matrix(1 0 0 1 -1021.4447 -0.8)">
	<stop  offset="0" style="stop-color:#52BBE8"/>
	<stop  offset="0.196" style="stop-color:#69C3EB"/>
	<stop  offset="0.6037" style="stop-color:#A3D8F1"/>
	<stop  offset="1" style="stop-color:#E1EFF8"/>
</linearGradient>
<path class="st23" d="M62.6,84.2c-1.3,0-2.3-1-2.3-2.3s1-2.3,2.3-2.3s2.3,1,2.3,2.3S63.9,84.2,62.6,84.2z"/>
<linearGradient id="SVGID_24_" gradientUnits="userSpaceOnUse" x1="1277.2379" y1="-237.0123" x2="1051.1232" y2="112.1085" gradientTransform="matrix(1 0 0 1 -1021.4447 -0.8)">
	<stop  offset="0" style="stop-color:#52BBE8"/>
	<stop  offset="0.196" style="stop-color:#69C3EB"/>
	<stop  offset="0.6037" style="stop-color:#A3D8F1"/>
	<stop  offset="1" style="stop-color:#E1EFF8"/>
</linearGradient>
<circle class="st24" cx="40.5" cy="94.6" r="0.2"/>
<linearGradient id="SVGID_25_" gradientUnits="userSpaceOnUse" x1="1288.915" y1="-229.4417" x2="1062.8041" y2="119.673" gradientTransform="matrix(1 0 0 1 -1021.4447 -0.8)">
	<stop  offset="0" style="stop-color:#52BBE8"/>
	<stop  offset="0.196" style="stop-color:#69C3EB"/>
	<stop  offset="0.6037" style="stop-color:#A3D8F1"/>
	<stop  offset="1" style="stop-color:#E1EFF8"/>
</linearGradient>
<circle class="st25" cx="40.5" cy="120.2" r="1.9"/>
<linearGradient id="SVGID_26_" gradientUnits="userSpaceOnUse" x1="1310.3134" y1="-215.5804" x2="1084.2034" y2="133.5329" gradientTransform="matrix(1 0 0 1 -1021.4447 -0.8)">
	<stop  offset="0" style="stop-color:#52BBE8"/>
	<stop  offset="0.196" style="stop-color:#69C3EB"/>
	<stop  offset="0.6037" style="stop-color:#A3D8F1"/>
	<stop  offset="1" style="stop-color:#E1EFF8"/>
</linearGradient>
<path class="st26" d="M62.6,134.6c-0.9,0-1.6-0.7-1.6-1.6c0-0.9,0.7-1.6,1.6-1.6s1.6,0.7,1.6,1.6C64.2,133.8,63.5,134.6,62.6,134.6z
	"/>
<linearGradient id="SVGID_27_" gradientUnits="userSpaceOnUse" x1="1318.1709" y1="-210.4914" x2="1092.061" y2="138.6219" gradientTransform="matrix(1 0 0 1 -1021.4447 -0.8)">
	<stop  offset="0" style="stop-color:#52BBE8"/>
	<stop  offset="0.196" style="stop-color:#69C3EB"/>
	<stop  offset="0.6037" style="stop-color:#A3D8F1"/>
	<stop  offset="1" style="stop-color:#E1EFF8"/>
</linearGradient>
<path class="st27" d="M105.4,81.8c0-0.8,0.6-1.5,1.5-1.5c0.8,0,1.5,0.6,1.5,1.5c0,0.8-0.6,1.5-1.5,1.5
	C106.1,83.3,105.4,82.6,105.4,81.8z"/>
<linearGradient id="SVGID_28_" gradientUnits="userSpaceOnUse" x1="1308.4177" y1="-216.8081" x2="1082.3079" y2="132.305" gradientTransform="matrix(1 0 0 1 -1021.4447 -0.8)">
	<stop  offset="0" style="stop-color:#52BBE8"/>
	<stop  offset="0.196" style="stop-color:#69C3EB"/>
	<stop  offset="0.6037" style="stop-color:#A3D8F1"/>
	<stop  offset="1" style="stop-color:#E1EFF8"/>
</linearGradient>
<path class="st28" d="M84.8,91.8c1.6,0,2.8,1.3,2.8,2.8c0,1.6-1.3,2.8-2.8,2.8c-1.6,0-2.8-1.3-2.8-2.8C81.9,93,83.2,91.8,84.8,91.8z
	"/>
<linearGradient id="SVGID_29_" gradientUnits="userSpaceOnUse" x1="1306.5294" y1="-218.0389" x2="1080.4152" y2="131.0809" gradientTransform="matrix(1 0 0 1 -1021.4447 -0.8)">
	<stop  offset="0" style="stop-color:#52BBE8"/>
	<stop  offset="0.196" style="stop-color:#69C3EB"/>
	<stop  offset="0.6037" style="stop-color:#A3D8F1"/>
	<stop  offset="1" style="stop-color:#E1EFF8"/>
</linearGradient>
<path class="st29" d="M106.9,53.9c1.3,0,2.4,1.1,2.4,2.4c0,1.3-1.1,2.4-2.4,2.4s-2.4-1.1-2.4-2.4C104.5,54.9,105.6,53.9,106.9,53.9z
	"/>
<linearGradient id="SVGID_30_" gradientUnits="userSpaceOnUse" x1="1337.7448" y1="-197.8139" x2="1111.635" y2="151.2987" gradientTransform="matrix(1 0 0 1 -1021.4447 -0.8)">
	<stop  offset="0" style="stop-color:#52BBE8"/>
	<stop  offset="0.196" style="stop-color:#69C3EB"/>
	<stop  offset="0.6037" style="stop-color:#A3D8F1"/>
	<stop  offset="1" style="stop-color:#E1EFF8"/>
</linearGradient>
<path class="st30" d="M152.3,56.3c0,0.6-0.5,1.1-1.1,1.1s-1.1-0.5-1.1-1.1s0.5-1.1,1.1-1.1C151.8,55.1,152.3,55.6,152.3,56.3z"/>
<linearGradient id="SVGID_31_" gradientUnits="userSpaceOnUse" x1="1347.4722" y1="-191.5109" x2="1121.3646" y2="157.5985" gradientTransform="matrix(1 0 0 1 -1021.4447 -0.8)">
	<stop  offset="0" style="stop-color:#52BBE8"/>
	<stop  offset="0.196" style="stop-color:#69C3EB"/>
	<stop  offset="0.6037" style="stop-color:#A3D8F1"/>
	<stop  offset="1" style="stop-color:#E1EFF8"/>
</linearGradient>
<path class="st31" d="M173.3,41.3c1.2,0,2.2,1,2.2,2.2s-1,2.2-2.2,2.2s-2.2-1-2.2-2.2S172.1,41.3,173.3,41.3z"/>
<linearGradient id="SVGID_32_" gradientUnits="userSpaceOnUse" x1="1368.9548" y1="-177.6032" x2="1142.843" y2="171.5127" gradientTransform="matrix(1 0 0 1 -1021.4447 -0.8)">
	<stop  offset="0" style="stop-color:#52BBE8"/>
	<stop  offset="0.196" style="stop-color:#69C3EB"/>
	<stop  offset="0.6037" style="stop-color:#A3D8F1"/>
	<stop  offset="1" style="stop-color:#E1EFF8"/>
</linearGradient>
<path class="st32" d="M197.6,56.3c0,1.2-1,2.1-2.1,2.1s-2.1-1-2.1-2.1c0-1.2,1-2.1,2.1-2.1S197.6,55.1,197.6,56.3z"/>
<linearGradient id="SVGID_33_" gradientUnits="userSpaceOnUse" x1="1378.6829" y1="-171.3009" x2="1152.5721" y2="177.8134" gradientTransform="matrix(1 0 0 1 -1021.4447 -0.8)">
	<stop  offset="0" style="stop-color:#52BBE8"/>
	<stop  offset="0.196" style="stop-color:#69C3EB"/>
	<stop  offset="0.6037" style="stop-color:#A3D8F1"/>
	<stop  offset="1" style="stop-color:#E1EFF8"/>
</linearGradient>
<path class="st33" d="M217.6,41c1.4,0,2.5,1.1,2.5,2.5S219,46,217.6,46s-2.5-1.1-2.5-2.5C215.1,42.1,216.2,41,217.6,41z"/>
<linearGradient id="SVGID_34_" gradientUnits="userSpaceOnUse" x1="1251.9698" y1="-253.3761" x2="1025.855" y2="95.7448" gradientTransform="matrix(1 0 0 1 -1021.4447 -0.8)">
	<stop  offset="0" style="stop-color:#52BBE8"/>
	<stop  offset="0.196" style="stop-color:#69C3EB"/>
	<stop  offset="0.6037" style="stop-color:#A3D8F1"/>
	<stop  offset="1" style="stop-color:#E1EFF8"/>
</linearGradient>
<circle class="st34" cx="62.6" cy="5.1" r="1.4"/>
<linearGradient id="SVGID_35_" gradientUnits="userSpaceOnUse" x1="1242.2407" y1="-259.6767" x2="1016.1263" y2="89.4434" gradientTransform="matrix(1 0 0 1 -1021.4447 -0.8)">
	<stop  offset="0" style="stop-color:#52BBE8"/>
	<stop  offset="0.196" style="stop-color:#69C3EB"/>
	<stop  offset="0.6037" style="stop-color:#A3D8F1"/>
	<stop  offset="1" style="stop-color:#E1EFF8"/>
</linearGradient>
<circle class="st35" cx="40.5" cy="17.9" r="1.1"/>
<linearGradient id="SVGID_36_" gradientUnits="userSpaceOnUse" x1="1253.8505" y1="-252.1564" x2="1027.7368" y2="96.9624" gradientTransform="matrix(1 0 0 1 -1021.4447 -0.8)">
	<stop  offset="0" style="stop-color:#52BBE8"/>
	<stop  offset="0.196" style="stop-color:#69C3EB"/>
	<stop  offset="0.6037" style="stop-color:#A3D8F1"/>
	<stop  offset="1" style="stop-color:#E1EFF8"/>
</linearGradient>
<path class="st36" d="M39.9,43.5c0-0.3,0.2-0.5,0.5-0.5s0.5,0.2,0.5,0.5S40.7,44,40.4,44C40.2,44,39.9,43.8,39.9,43.5z"/>
<linearGradient id="SVGID_37_" gradientUnits="userSpaceOnUse" x1="1275.3279" y1="-238.2407" x2="1049.2172" y2="110.8736" gradientTransform="matrix(1 0 0 1 -1021.4447 -0.8)">
	<stop  offset="0" style="stop-color:#52BBE8"/>
	<stop  offset="0.196" style="stop-color:#69C3EB"/>
	<stop  offset="0.6037" style="stop-color:#A3D8F1"/>
	<stop  offset="1" style="stop-color:#E1EFF8"/>
</linearGradient>
<circle class="st37" cx="62.6" cy="56.3" r="2.3"/>
<linearGradient id="SVGID_38_" gradientUnits="userSpaceOnUse" x1="1273.446" y1="-239.4585" x2="1047.3362" y2="109.6546" gradientTransform="matrix(1 0 0 1 -1021.4447 -0.8)">
	<stop  offset="0" style="stop-color:#52BBE8"/>
	<stop  offset="0.196" style="stop-color:#69C3EB"/>
	<stop  offset="0.6037" style="stop-color:#A3D8F1"/>
	<stop  offset="1" style="stop-color:#E1EFF8"/>
</linearGradient>
<path class="st38" d="M82.9,17.9c0-1,0.8-1.9,1.9-1.9c1,0,1.9,0.8,1.9,1.9c0,1-0.8,1.9-1.9,1.9C83.7,19.8,82.9,18.9,82.9,17.9z"/>
<linearGradient id="SVGID_39_" gradientUnits="userSpaceOnUse" x1="1285.0563" y1="-231.939" x2="1058.9462" y2="117.1745" gradientTransform="matrix(1 0 0 1 -1021.4447 -0.8)">
	<stop  offset="0" style="stop-color:#52BBE8"/>
	<stop  offset="0.196" style="stop-color:#69C3EB"/>
	<stop  offset="0.6037" style="stop-color:#A3D8F1"/>
	<stop  offset="1" style="stop-color:#E1EFF8"/>
</linearGradient>
<path class="st39" d="M86,43.5c0,0.7-0.6,1.3-1.3,1.3c-0.7,0-1.3-0.6-1.3-1.3s0.6-1.3,1.3-1.3C85.5,42.2,86,42.8,86,43.5z"/>
<linearGradient id="SVGID_40_" gradientUnits="userSpaceOnUse" x1="1316.2893" y1="-211.7106" x2="1090.1792" y2="137.403" gradientTransform="matrix(1 0 0 1 -1021.4447 -0.8)">
	<stop  offset="0" style="stop-color:#52BBE8"/>
	<stop  offset="0.196" style="stop-color:#69C3EB"/>
	<stop  offset="0.6037" style="stop-color:#A3D8F1"/>
	<stop  offset="1" style="stop-color:#E1EFF8"/>
</linearGradient>
<path class="st40" d="M129,44.5c-0.6,0-1-0.5-1-1c0-0.6,0.5-1,1-1c0.6,0,1,0.5,1,1C130.1,44.1,129.6,44.5,129,44.5z"/>
<linearGradient id="SVGID_41_" gradientUnits="userSpaceOnUse" x1="1314.3835" y1="-212.9444" x2="1088.2737" y2="136.1685" gradientTransform="matrix(1 0 0 1 -1021.4447 -0.8)">
	<stop  offset="0" style="stop-color:#52BBE8"/>
	<stop  offset="0.196" style="stop-color:#69C3EB"/>
	<stop  offset="0.6037" style="stop-color:#A3D8F1"/>
	<stop  offset="1" style="stop-color:#E1EFF8"/>
</linearGradient>
<path class="st41" d="M149.4,5.1c0-1,0.8-1.8,1.8-1.8s1.8,0.8,1.8,1.8s-0.8,1.8-1.8,1.8S149.4,6.1,149.4,5.1z"/>
<linearGradient id="SVGID_42_" gradientUnits="userSpaceOnUse" x1="1304.6006" y1="-219.2824" x2="1078.4895" y2="129.8327" gradientTransform="matrix(1 0 0 1 -1021.4447 -0.8)">
	<stop  offset="0" style="stop-color:#52BBE8"/>
	<stop  offset="0.196" style="stop-color:#69C3EB"/>
	<stop  offset="0.6037" style="stop-color:#A3D8F1"/>
	<stop  offset="1" style="stop-color:#E1EFF8"/>
</linearGradient>
<path class="st42" d="M129,20.4c-1.4,0-2.5-1.1-2.5-2.5s1.1-2.5,2.5-2.5s2.5,1.1,2.5,2.5C131.6,19.3,130.4,20.4,129,20.4z"/>
<linearGradient id="SVGID_43_" gradientUnits="userSpaceOnUse" x1="1367.0034" y1="-178.8679" x2="1140.8909" y2="170.2493" gradientTransform="matrix(1 0 0 1 -1021.4447 -0.8)">
	<stop  offset="0" style="stop-color:#52BBE8"/>
	<stop  offset="0.196" style="stop-color:#69C3EB"/>
	<stop  offset="0.6037" style="stop-color:#A3D8F1"/>
	<stop  offset="1" style="stop-color:#E1EFF8"/>
</linearGradient>
<path class="st43" d="M217.6,15.2c1.5,0,2.7,1.2,2.7,2.7s-1.2,2.7-2.7,2.7s-2.7-1.2-2.7-2.7S216.1,15.2,217.6,15.2z"/>
<linearGradient id="SVGID_44_" gradientUnits="userSpaceOnUse" x1="1283.1743" y1="-233.1566" x2="1057.0651" y2="115.9556" gradientTransform="matrix(1 0 0 1 -1021.4447 -0.8)">
	<stop  offset="0" style="stop-color:#52BBE8"/>
	<stop  offset="0.196" style="stop-color:#69C3EB"/>
	<stop  offset="0.6037" style="stop-color:#A3D8F1"/>
	<stop  offset="1" style="stop-color:#E1EFF8"/>
</linearGradient>
<path class="st44" d="M105.2,5.1c0-0.9,0.8-1.7,1.7-1.7c0.9,0,1.7,0.8,1.7,1.7c0,0.9-0.8,1.7-1.7,1.7S105.2,6.1,105.2,5.1z"/>
<linearGradient id="SVGID_45_" gradientUnits="userSpaceOnUse" x1="1335.7935" y1="-199.0789" x2="1109.683" y2="150.0351" gradientTransform="matrix(1 0 0 1 -1021.4447 -0.8)">
	<stop  offset="0" style="stop-color:#52BBE8"/>
	<stop  offset="0.196" style="stop-color:#69C3EB"/>
	<stop  offset="0.6037" style="stop-color:#A3D8F1"/>
	<stop  offset="1" style="stop-color:#E1EFF8"/>
</linearGradient>
<circle class="st45" cx="173.3" cy="17.9" r="2.9"/>
<linearGradient id="SVGID_46_" gradientUnits="userSpaceOnUse" x1="1345.5914" y1="-192.7302" x2="1119.4833" y2="156.3802" gradientTransform="matrix(1 0 0 1 -1021.4447 -0.8)">
	<stop  offset="0" style="stop-color:#52BBE8"/>
	<stop  offset="0.196" style="stop-color:#69C3EB"/>
	<stop  offset="0.6037" style="stop-color:#A3D8F1"/>
	<stop  offset="1" style="stop-color:#E1EFF8"/>
</linearGradient>
<circle class="st46" cx="195.5" cy="5.1" r="1.1"/>
<g class="st0">
	
		<linearGradient id="SVGID_47_" gradientUnits="userSpaceOnUse" x1="1331.9161" y1="-181.2932" x2="1055.9386" y2="244.8155" gradientTransform="matrix(1 0 0 1 -1021.4447 -0.8)">
		<stop  offset="0" style="stop-color:#52BBE8"/>
		<stop  offset="0.196" style="stop-color:#69C3EB"/>
		<stop  offset="0.6037" style="stop-color:#A3D8F1"/>
		<stop  offset="1" style="stop-color:#E1EFF8"/>
	</linearGradient>
	<polygon class="st47" points="16.4,289.2 16.4,262.2 12.8,260 12.8,259.8 16.6,262 16.7,262 16.7,289.2 	"/>
</g>
<g class="st0">
	
		<linearGradient id="SVGID_48_" gradientUnits="userSpaceOnUse" x1="1275.7234" y1="-217.6877" x2="999.7461" y2="208.4205" gradientTransform="matrix(1 0 0 1 -1021.4447 -0.8)">
		<stop  offset="0" style="stop-color:#52BBE8"/>
		<stop  offset="0.196" style="stop-color:#69C3EB"/>
		<stop  offset="0.6037" style="stop-color:#A3D8F1"/>
		<stop  offset="1" style="stop-color:#E1EFF8"/>
	</linearGradient>
	<polygon class="st48" points="16.6,168.6 16.6,168.6 12.8,166.4 12.8,166.1 16.6,168.3 43.5,152.8 43.5,121.7 16.6,106.2 
		12.8,108.4 12.8,108.1 16.5,106 16.6,105.9 43.6,121.6 43.7,121.6 43.7,152.9 	"/>
</g>
<g class="st0">
	
		<linearGradient id="SVGID_49_" gradientUnits="userSpaceOnUse" x1="1247.4147" y1="-236.0232" x2="971.4383" y2="190.0837" gradientTransform="matrix(1 0 0 1 -1021.4447 -0.8)">
		<stop  offset="0" style="stop-color:#52BBE8"/>
		<stop  offset="0.196" style="stop-color:#69C3EB"/>
		<stop  offset="0.6037" style="stop-color:#A3D8F1"/>
		<stop  offset="1" style="stop-color:#E1EFF8"/>
	</linearGradient>
	<polygon class="st49" points="12.8,108.4 12.8,108.1 16.4,106 16.4,74.9 12.8,72.8 12.8,72.5 16.6,74.8 16.7,74.8 16.7,106.1 	"/>
</g>
<g class="st0">
	
		<linearGradient id="SVGID_50_" gradientUnits="userSpaceOnUse" x1="745.7485" y1="-115.1651" x2="469.7708" y2="310.9437" gradientTransform="matrix(-1 0 0 -1 586.1 289.2)">
		<stop  offset="0" style="stop-color:#52BBE8"/>
		<stop  offset="0.196" style="stop-color:#69C3EB"/>
		<stop  offset="0.6037" style="stop-color:#A3D8F1"/>
		<stop  offset="1" style="stop-color:#E1EFF8"/>
	</linearGradient>
	<path class="st50" d="M70.7,74.8L70.7,74.8l0.1,31.4l-27.1,15.6h-0.1l-27.1-15.6h-0.1V74.9l27.1-15.7h0.1L70.7,74.8z M16.7,106
		l26.9,15.5L70.5,106V74.9L43.6,59.4L16.7,74.9V106z"/>
</g>
<g class="st0">
	
		<linearGradient id="SVGID_51_" gradientUnits="userSpaceOnUse" x1="675.7907" y1="-90.5265" x2="399.8129" y2="335.5827" gradientTransform="matrix(-1 0 0 -1 586.1 289.2)">
		<stop  offset="0" style="stop-color:#52BBE8"/>
		<stop  offset="0.196" style="stop-color:#69C3EB"/>
		<stop  offset="0.6037" style="stop-color:#A3D8F1"/>
		<stop  offset="1" style="stop-color:#E1EFF8"/>
	</linearGradient>
	<path class="st51" d="M124.7,74.8L124.7,74.8l0.1,31.4l-27.1,15.6h-0.1l-27.1-15.6h-0.1V74.9l27.2-15.7h0.1L124.7,74.8z M70.7,106
		l26.9,15.5l26.9-15.5V74.9L97.6,59.4L70.7,74.9V106z"/>
</g>
<g class="st0">
	
		<linearGradient id="SVGID_52_" gradientUnits="userSpaceOnUse" x1="605.7034" y1="-65.842" x2="329.7257" y2="360.2668" gradientTransform="matrix(-1 0 0 -1 586.1 289.2)">
		<stop  offset="0" style="stop-color:#52BBE8"/>
		<stop  offset="0.196" style="stop-color:#69C3EB"/>
		<stop  offset="0.6037" style="stop-color:#A3D8F1"/>
		<stop  offset="1" style="stop-color:#E1EFF8"/>
	</linearGradient>
	<path class="st52" d="M178.8,74.8L178.8,74.8l0.1,31.4l-27.1,15.6h-0.1l-27.1-15.6h-0.1V74.9l27.1-15.7h0.1L178.8,74.8z M124.8,106
		l26.9,15.5l26.9-15.5V74.9l-26.9-15.5l-26.9,15.5V106z"/>
</g>
<g class="st0">
	
		<linearGradient id="SVGID_53_" gradientUnits="userSpaceOnUse" x1="1233.0161" y1="-245.3478" x2="957.0388" y2="180.7604" gradientTransform="matrix(1 0 0 1 -1021.4447 -0.8)">
		<stop  offset="0" style="stop-color:#52BBE8"/>
		<stop  offset="0.196" style="stop-color:#69C3EB"/>
		<stop  offset="0.6037" style="stop-color:#A3D8F1"/>
		<stop  offset="1" style="stop-color:#E1EFF8"/>
	</linearGradient>
	<polygon class="st53" points="16.6,75 16.6,75 12.8,72.8 12.8,72.5 16.6,74.7 43.5,59.2 43.5,28.1 16.6,12.6 12.8,14.8 12.8,14.5 
		16.5,12.4 16.6,12.3 43.6,28 43.7,28 43.7,59.3 	"/>
</g>
<g class="st0">
	
		<linearGradient id="SVGID_54_" gradientUnits="userSpaceOnUse" x1="689.4161" y1="-23.076" x2="413.4381" y2="403.0333" gradientTransform="matrix(-1 0 0 -1 586.1 289.2)">
		<stop  offset="0" style="stop-color:#52BBE8"/>
		<stop  offset="0.196" style="stop-color:#69C3EB"/>
		<stop  offset="0.6037" style="stop-color:#A3D8F1"/>
		<stop  offset="1" style="stop-color:#E1EFF8"/>
	</linearGradient>
	<path class="st54" d="M97.7,28L97.7,28l0.1,31.4L70.7,75h-0.1L43.5,59.4h-0.1V28.1l27.1-15.6h0.1L97.7,28z M43.7,59.2l26.9,15.5
		l26.9-15.5V28.1L70.6,12.6L43.7,28.1V59.2z"/>
</g>
<g class="st0">
	
		<linearGradient id="SVGID_55_" gradientUnits="userSpaceOnUse" x1="619.4583" y1="1.5626" x2="343.4805" y2="427.6719" gradientTransform="matrix(-1 0 0 -1 586.1 289.2)">
		<stop  offset="0" style="stop-color:#52BBE8"/>
		<stop  offset="0.196" style="stop-color:#69C3EB"/>
		<stop  offset="0.6037" style="stop-color:#A3D8F1"/>
		<stop  offset="1" style="stop-color:#E1EFF8"/>
	</linearGradient>
	<path class="st55" d="M151.7,28L151.7,28l0.1,31.4L124.7,75h-0.1L97.5,59.4h-0.1V28.1l27.2-15.7h0.1L151.7,28z M97.7,59.2
		l26.9,15.5l27-15.5V28.1l-26.9-15.5L97.8,28.1v31.1H97.7z"/>
</g>
<g class="st0">
	
		<linearGradient id="SVGID_56_" gradientUnits="userSpaceOnUse" x1="1304.9172" y1="-198.7798" x2="1028.9402" y2="227.3281" gradientTransform="matrix(1 0 0 1 -1021.4447 -0.8)">
		<stop  offset="0" style="stop-color:#52BBE8"/>
		<stop  offset="0.196" style="stop-color:#69C3EB"/>
		<stop  offset="0.6037" style="stop-color:#A3D8F1"/>
		<stop  offset="1" style="stop-color:#E1EFF8"/>
	</linearGradient>
	<polygon class="st56" points="12.8,239.4 12.8,238 15.6,236.4 15.6,196.4 12.8,194.8 12.8,193.4 16.8,195.7 16.8,237.1 	"/>
</g>
<g class="st0">
	
		<linearGradient id="SVGID_57_" gradientUnits="userSpaceOnUse" x1="793.0168" y1="-326.1177" x2="517.0392" y2="99.991" gradientTransform="matrix(-1 0 0 -1 586.1 289.2)">
		<stop  offset="0" style="stop-color:#52BBE8"/>
		<stop  offset="0.196" style="stop-color:#69C3EB"/>
		<stop  offset="0.6037" style="stop-color:#A3D8F1"/>
		<stop  offset="1" style="stop-color:#E1EFF8"/>
	</linearGradient>
	<path class="st57" d="M87.3,195.7v41.4l-35.8,20.7l-35.9-20.7v-41.4L51.4,175L87.3,195.7z M16.8,236.4l34.6,20l34.6-20v-40
		l-34.6-20l-34.6,20V236.4z"/>
</g>
<g class="st0">
	
		<linearGradient id="SVGID_58_" gradientUnits="userSpaceOnUse" x1="1285.7419" y1="-211.1989" x2="1009.7648" y2="214.9092" gradientTransform="matrix(1 0 0 1 -1021.4447 -0.8)">
		<stop  offset="0" style="stop-color:#52BBE8"/>
		<stop  offset="0.196" style="stop-color:#69C3EB"/>
		<stop  offset="0.6037" style="stop-color:#A3D8F1"/>
		<stop  offset="1" style="stop-color:#E1EFF8"/>
	</linearGradient>
	<polygon class="st58" points="16.2,196.8 12.8,194.8 12.8,193.4 16.2,195.3 50.8,175.4 50.8,135.4 16.2,115.4 12.8,117.4 12.8,116 
		16.2,114 52,134.7 52,176.1 	"/>
</g>
<g class="st0">
	
		<linearGradient id="SVGID_59_" gradientUnits="userSpaceOnUse" x1="719.5819" y1="-206.0831" x2="443.6043" y2="220.0256" gradientTransform="matrix(-1 0 0 -1 586.1 289.2)">
		<stop  offset="0" style="stop-color:#52BBE8"/>
		<stop  offset="0.196" style="stop-color:#69C3EB"/>
		<stop  offset="0.6037" style="stop-color:#A3D8F1"/>
		<stop  offset="1" style="stop-color:#E1EFF8"/>
	</linearGradient>
	<path class="st59" d="M122.5,134.7v41.4l-35.9,20.7l-35.8-20.7v-41.4L86.6,114L122.5,134.7z M52,175.4l34.6,20l34.6-20v-40
		l-34.6-20l-34.6,20V175.4z"/>
</g>
<g class="st0">
	
		<linearGradient id="SVGID_60_" gradientUnits="userSpaceOnUse" x1="1249.2518" y1="-234.8325" x2="973.2748" y2="191.2754" gradientTransform="matrix(1 0 0 1 -1021.4447 -0.8)">
		<stop  offset="0" style="stop-color:#52BBE8"/>
		<stop  offset="0.196" style="stop-color:#69C3EB"/>
		<stop  offset="0.6037" style="stop-color:#A3D8F1"/>
		<stop  offset="1" style="stop-color:#E1EFF8"/>
	</linearGradient>
	<polygon class="st60" points="12.8,117.4 12.8,116 15.6,114.4 15.6,74.4 12.8,72.8 12.8,71.4 16.8,73.7 16.8,115.1 	"/>
</g>
<g class="st0">
	
		<linearGradient id="SVGID_61_" gradientUnits="userSpaceOnUse" x1="737.2864" y1="-118.1476" x2="461.3089" y2="307.9612" gradientTransform="matrix(-1 0 0 -1 586.1 289.2)">
		<stop  offset="0" style="stop-color:#52BBE8"/>
		<stop  offset="0.196" style="stop-color:#69C3EB"/>
		<stop  offset="0.6037" style="stop-color:#A3D8F1"/>
		<stop  offset="1" style="stop-color:#E1EFF8"/>
	</linearGradient>
	<path class="st61" d="M87.3,73.7v41.4l-35.8,20.7l-35.8-20.7V73.7L51.5,53L87.3,73.7z M16.8,114.4l34.6,20l34.6-20v-40l-34.6-20
		l-34.6,20V114.4z"/>
</g>
<linearGradient id="SVGID_62_" gradientUnits="userSpaceOnUse" x1="1327.5624" y1="-184.1146" x2="1051.5845" y2="241.9946" gradientTransform="matrix(1 0 0 1 -1021.4447 -0.8)">
	<stop  offset="0" style="stop-color:#52BBE8"/>
	<stop  offset="0.196" style="stop-color:#69C3EB"/>
	<stop  offset="0.6037" style="stop-color:#A3D8F1"/>
	<stop  offset="1" style="stop-color:#E1EFF8"/>
</linearGradient>
<path class="st62" d="M16.6,259c1.7,0,3.1,1.4,3.1,3.1c0,1.7-1.4,3.1-3.1,3.1s-3.1-1.4-3.1-3.1C13.5,260.4,14.9,259,16.6,259z"/>
<linearGradient id="SVGID_63_" gradientUnits="userSpaceOnUse" x1="1296.7609" y1="-204.0692" x2="1020.7798" y2="222.0449" gradientTransform="matrix(1 0 0 1 -1021.4447 -0.8)">
	<stop  offset="0" style="stop-color:#52BBE8"/>
	<stop  offset="0.196" style="stop-color:#69C3EB"/>
	<stop  offset="0.6037" style="stop-color:#A3D8F1"/>
	<stop  offset="1" style="stop-color:#E1EFF8"/>
</linearGradient>
<path class="st63" d="M41.8,152.9c0-1,0.8-1.8,1.8-1.8s1.8,0.8,1.8,1.8s-0.8,1.8-1.8,1.8C42.6,154.6,41.8,153.8,41.8,152.9z"/>
<linearGradient id="SVGID_64_" gradientUnits="userSpaceOnUse" x1="1284.8086" y1="-211.8026" x2="1008.8317" y2="214.3049" gradientTransform="matrix(1 0 0 1 -1021.4447 -0.8)">
	<stop  offset="0" style="stop-color:#52BBE8"/>
	<stop  offset="0.196" style="stop-color:#69C3EB"/>
	<stop  offset="0.6037" style="stop-color:#A3D8F1"/>
	<stop  offset="1" style="stop-color:#E1EFF8"/>
</linearGradient>
<path class="st64" d="M16.6,165c1.9,0,3.4,1.5,3.4,3.4c0,1.9-1.5,3.4-3.4,3.4s-3.4-1.5-3.4-3.4C13.2,166.5,14.7,165,16.6,165z"/>
<linearGradient id="SVGID_65_" gradientUnits="userSpaceOnUse" x1="1282.4767" y1="-213.3145" x2="1006.499" y2="212.7945" gradientTransform="matrix(1 0 0 1 -1021.4447 -0.8)">
	<stop  offset="0" style="stop-color:#52BBE8"/>
	<stop  offset="0.196" style="stop-color:#69C3EB"/>
	<stop  offset="0.6037" style="stop-color:#A3D8F1"/>
	<stop  offset="1" style="stop-color:#E1EFF8"/>
</linearGradient>
<path class="st65" d="M43.6,118.7c1.6,0,2.9,1.3,2.9,2.9s-1.3,2.9-2.9,2.9s-2.9-1.3-2.9-2.9S42,118.7,43.6,118.7z"/>
<linearGradient id="SVGID_66_" gradientUnits="userSpaceOnUse" x1="1320.5663" y1="-188.6489" x2="1044.5862" y2="237.4637" gradientTransform="matrix(1 0 0 1 -1021.4447 -0.8)">
	<stop  offset="0" style="stop-color:#52BBE8"/>
	<stop  offset="0.196" style="stop-color:#69C3EB"/>
	<stop  offset="0.6037" style="stop-color:#A3D8F1"/>
	<stop  offset="1" style="stop-color:#E1EFF8"/>
</linearGradient>
<path class="st66" d="M99,121.7c0,0.8-0.6,1.4-1.4,1.4s-1.4-0.6-1.4-1.4c0-0.8,0.6-1.4,1.4-1.4S99,120.9,99,121.7z"/>
<linearGradient id="SVGID_67_" gradientUnits="userSpaceOnUse" x1="1332.5372" y1="-180.8897" x2="1056.5612" y2="245.2167" gradientTransform="matrix(1 0 0 1 -1021.4447 -0.8)">
	<stop  offset="0" style="stop-color:#52BBE8"/>
	<stop  offset="0.196" style="stop-color:#69C3EB"/>
	<stop  offset="0.6037" style="stop-color:#A3D8F1"/>
	<stop  offset="1" style="stop-color:#E1EFF8"/>
</linearGradient>
<circle class="st67" cx="124.7" cy="106.1" r="2.7"/>
<linearGradient id="SVGID_68_" gradientUnits="userSpaceOnUse" x1="1358.6766" y1="-163.9607" x2="1082.6997" y2="262.1468" gradientTransform="matrix(1 0 0 1 -1021.4447 -0.8)">
	<stop  offset="0" style="stop-color:#52BBE8"/>
	<stop  offset="0.196" style="stop-color:#69C3EB"/>
	<stop  offset="0.6037" style="stop-color:#A3D8F1"/>
	<stop  offset="1" style="stop-color:#E1EFF8"/>
</linearGradient>
<path class="st68" d="M154.3,121.7c0,1.4-1.2,2.6-2.6,2.6s-2.6-1.2-2.6-2.6c0-1.4,1.2-2.6,2.6-2.6S154.3,120.2,154.3,121.7z"/>
<linearGradient id="SVGID_69_" gradientUnits="userSpaceOnUse" x1="1370.5813" y1="-156.2537" x2="1094.6018" y2="269.8579" gradientTransform="matrix(1 0 0 1 -1021.4447 -0.8)">
	<stop  offset="0" style="stop-color:#52BBE8"/>
	<stop  offset="0.196" style="stop-color:#69C3EB"/>
	<stop  offset="0.6037" style="stop-color:#A3D8F1"/>
	<stop  offset="1" style="stop-color:#E1EFF8"/>
</linearGradient>
<circle class="st69" cx="178.7" cy="106.1" r="3"/>
<linearGradient id="SVGID_70_" gradientUnits="userSpaceOnUse" x1="1242.1454" y1="-239.4309" x2="966.1707" y2="186.6733" gradientTransform="matrix(1 0 0 1 -1021.4447 -0.8)">
	<stop  offset="0" style="stop-color:#52BBE8"/>
	<stop  offset="0.196" style="stop-color:#69C3EB"/>
	<stop  offset="0.6037" style="stop-color:#A3D8F1"/>
	<stop  offset="1" style="stop-color:#E1EFF8"/>
</linearGradient>
<path class="st70" d="M14.3,74.9c0-1.3,1-2.3,2.3-2.3s2.3,1,2.3,2.3s-1,2.3-2.3,2.3C15.3,77.1,14.3,76.1,14.3,74.9z"/>
<linearGradient id="SVGID_71_" gradientUnits="userSpaceOnUse" x1="1256.3116" y1="-230.2582" x2="980.3354" y2="195.8486" gradientTransform="matrix(1 0 0 1 -1021.4447 -0.8)">
	<stop  offset="0" style="stop-color:#52BBE8"/>
	<stop  offset="0.196" style="stop-color:#69C3EB"/>
	<stop  offset="0.6037" style="stop-color:#A3D8F1"/>
	<stop  offset="1" style="stop-color:#E1EFF8"/>
</linearGradient>
<path class="st71" d="M18.1,106.1c0,0.9-0.7,1.6-1.6,1.6s-1.6-0.7-1.6-1.6c0-0.9,0.7-1.6,1.6-1.6C17.4,104.5,18.1,105.2,18.1,106.1z
	"/>
<linearGradient id="SVGID_72_" gradientUnits="userSpaceOnUse" x1="1294.4216" y1="-205.5695" x2="1018.4492" y2="220.5312" gradientTransform="matrix(1 0 0 1 -1021.4447 -0.8)">
	<stop  offset="0" style="stop-color:#52BBE8"/>
	<stop  offset="0.196" style="stop-color:#69C3EB"/>
	<stop  offset="0.6037" style="stop-color:#A3D8F1"/>
	<stop  offset="1" style="stop-color:#E1EFF8"/>
</linearGradient>
<circle class="st72" cx="70.6" cy="106.1" r="1.3"/>
<linearGradient id="SVGID_73_" gradientUnits="userSpaceOnUse" x1="1292.0826" y1="-207.0924" x2="1016.1052" y2="219.0162" gradientTransform="matrix(1 0 0 1 -1021.4447 -0.8)">
	<stop  offset="0" style="stop-color:#52BBE8"/>
	<stop  offset="0.196" style="stop-color:#69C3EB"/>
	<stop  offset="0.6037" style="stop-color:#A3D8F1"/>
	<stop  offset="1" style="stop-color:#E1EFF8"/>
</linearGradient>
<path class="st73" d="M95.5,59.3c0-1.2,1-2.1,2.1-2.1c1.2,0,2.1,1,2.1,2.1s-1,2.1-2.1,2.1C96.4,61.4,95.5,60.4,95.5,59.3z"/>
<linearGradient id="SVGID_74_" gradientUnits="userSpaceOnUse" x1="1280.1443" y1="-214.8254" x2="1004.1662" y2="211.2842" gradientTransform="matrix(1 0 0 1 -1021.4447 -0.8)">
	<stop  offset="0" style="stop-color:#52BBE8"/>
	<stop  offset="0.196" style="stop-color:#69C3EB"/>
	<stop  offset="0.6037" style="stop-color:#A3D8F1"/>
	<stop  offset="1" style="stop-color:#E1EFF8"/>
</linearGradient>
<path class="st74" d="M70.6,77.9c-1.7,0-3.1-1.4-3.1-3.1s1.4-3.1,3.1-3.1s3.1,1.4,3.1,3.1S72.3,77.9,70.6,77.9z"/>
<linearGradient id="SVGID_75_" gradientUnits="userSpaceOnUse" x1="1356.3445" y1="-165.4722" x2="1080.3671" y2="260.6364" gradientTransform="matrix(1 0 0 1 -1021.4447 -0.8)">
	<stop  offset="0" style="stop-color:#52BBE8"/>
	<stop  offset="0.196" style="stop-color:#69C3EB"/>
	<stop  offset="0.6037" style="stop-color:#A3D8F1"/>
	<stop  offset="1" style="stop-color:#E1EFF8"/>
</linearGradient>
<circle class="st75" cx="178.7" cy="74.9" r="3.3"/>
<linearGradient id="SVGID_76_" gradientUnits="userSpaceOnUse" x1="1254.0476" y1="-231.7201" x2="978.0743" y2="194.3822" gradientTransform="matrix(1 0 0 1 -1021.4447 -0.8)">
	<stop  offset="0" style="stop-color:#52BBE8"/>
	<stop  offset="0.196" style="stop-color:#69C3EB"/>
	<stop  offset="0.6037" style="stop-color:#A3D8F1"/>
	<stop  offset="1" style="stop-color:#E1EFF8"/>
</linearGradient>
<circle class="st76" cx="43.6" cy="59.3" r="2"/>
<linearGradient id="SVGID_77_" gradientUnits="userSpaceOnUse" x1="1239.8152" y1="-240.9452" x2="963.8373" y2="185.164" gradientTransform="matrix(1 0 0 1 -1021.4447 -0.8)">
	<stop  offset="0" style="stop-color:#52BBE8"/>
	<stop  offset="0.196" style="stop-color:#69C3EB"/>
	<stop  offset="0.6037" style="stop-color:#A3D8F1"/>
	<stop  offset="1" style="stop-color:#E1EFF8"/>
</linearGradient>
<path class="st77" d="M43.6,24.7c1.9,0,3.4,1.5,3.4,3.4s-1.5,3.4-3.4,3.4s-3.4-1.5-3.4-3.4S41.7,24.7,43.6,24.7z"/>
<linearGradient id="SVGID_78_" gradientUnits="userSpaceOnUse" x1="1318.3025" y1="-190.1112" x2="1042.3246" y2="235.998" gradientTransform="matrix(1 0 0 1 -1021.4447 -0.8)">
	<stop  offset="0" style="stop-color:#52BBE8"/>
	<stop  offset="0.196" style="stop-color:#69C3EB"/>
	<stop  offset="0.6037" style="stop-color:#A3D8F1"/>
	<stop  offset="1" style="stop-color:#E1EFF8"/>
</linearGradient>
<circle class="st78" cx="124.7" cy="74.9" r="3.5"/>
<linearGradient id="SVGID_79_" gradientUnits="userSpaceOnUse" x1="1330.2051" y1="-182.4008" x2="1054.2283" y2="243.7066" gradientTransform="matrix(1 0 0 1 -1021.4447 -0.8)">
	<stop  offset="0" style="stop-color:#52BBE8"/>
	<stop  offset="0.196" style="stop-color:#69C3EB"/>
	<stop  offset="0.6037" style="stop-color:#A3D8F1"/>
	<stop  offset="1" style="stop-color:#E1EFF8"/>
</linearGradient>
<path class="st79" d="M150.4,59.3c0-0.7,0.6-1.3,1.3-1.3c0.7,0,1.3,0.6,1.3,1.3s-0.6,1.3-1.3,1.3C151,60.6,150.4,60,150.4,59.3z"/>
<linearGradient id="SVGID_80_" gradientUnits="userSpaceOnUse" x1="1327.8735" y1="-183.913" x2="1051.8949" y2="242.1974" gradientTransform="matrix(1 0 0 1 -1021.4447 -0.8)">
	<stop  offset="0" style="stop-color:#52BBE8"/>
	<stop  offset="0.196" style="stop-color:#69C3EB"/>
	<stop  offset="0.6037" style="stop-color:#A3D8F1"/>
	<stop  offset="1" style="stop-color:#E1EFF8"/>
</linearGradient>
<circle class="st80" cx="178.7" cy="12.5" r="2.6"/>
<linearGradient id="SVGID_81_" gradientUnits="userSpaceOnUse" x1="1315.9684" y1="-191.6222" x2="1039.991" y2="234.4862" gradientTransform="matrix(1 0 0 1 -1021.4447 -0.8)">
	<stop  offset="0" style="stop-color:#52BBE8"/>
	<stop  offset="0.196" style="stop-color:#69C3EB"/>
	<stop  offset="0.6037" style="stop-color:#A3D8F1"/>
	<stop  offset="1" style="stop-color:#E1EFF8"/>
</linearGradient>
<path class="st81" d="M151.7,32c-2.2,0-3.9-1.8-3.9-3.9c0-2.2,1.8-3.9,3.9-3.9c2.2,0,3.9,1.8,3.9,3.9S153.9,32,151.7,32z"/>
<linearGradient id="SVGID_82_" gradientUnits="userSpaceOnUse" x1="1213.6605" y1="-257.8837" x2="937.6832" y2="168.2245" gradientTransform="matrix(1 0 0 1 -1021.4447 -0.8)">
	<stop  offset="0" style="stop-color:#52BBE8"/>
	<stop  offset="0.196" style="stop-color:#69C3EB"/>
	<stop  offset="0.6037" style="stop-color:#A3D8F1"/>
	<stop  offset="1" style="stop-color:#E1EFF8"/>
</linearGradient>
<path class="st82" d="M16.6,16.8c-1.7,0-3.1-0.9-3.8-2.3v-4c0.7-1.4,2.1-2.3,3.8-2.3c2.4,0,4.3,1.9,4.3,4.3
	C20.9,14.8,18.9,16.8,16.6,16.8z"/>
<linearGradient id="SVGID_83_" gradientUnits="userSpaceOnUse" x1="1251.7195" y1="-233.2375" x2="975.7393" y2="192.8752" gradientTransform="matrix(1 0 0 1 -1021.4447 -0.8)">
	<stop  offset="0" style="stop-color:#52BBE8"/>
	<stop  offset="0.196" style="stop-color:#69C3EB"/>
	<stop  offset="0.6037" style="stop-color:#A3D8F1"/>
	<stop  offset="1" style="stop-color:#E1EFF8"/>
</linearGradient>
<path class="st83" d="M70.6,15.1c-1.4,0-2.6-1.2-2.6-2.6s1.2-2.6,2.6-2.6s2.6,1.2,2.6,2.6C73.2,13.9,72,15.1,70.6,15.1z"/>
<linearGradient id="SVGID_84_" gradientUnits="userSpaceOnUse" x1="1277.8704" y1="-216.2951" x2="1001.8946" y2="209.8109" gradientTransform="matrix(1 0 0 1 -1021.4447 -0.8)">
	<stop  offset="0" style="stop-color:#52BBE8"/>
	<stop  offset="0.196" style="stop-color:#69C3EB"/>
	<stop  offset="0.6037" style="stop-color:#A3D8F1"/>
	<stop  offset="1" style="stop-color:#E1EFF8"/>
</linearGradient>
<path class="st84" d="M97.6,25.1c1.6,0,3,1.3,3,3c0,1.6-1.3,3-3,3c-1.6,0-3-1.3-3-3C94.7,26.4,96,25.1,97.6,25.1z"/>
<linearGradient id="SVGID_85_" gradientUnits="userSpaceOnUse" x1="1289.7604" y1="-208.5966" x2="1013.783" y2="217.5118" gradientTransform="matrix(1 0 0 1 -1021.4447 -0.8)">
	<stop  offset="0" style="stop-color:#52BBE8"/>
	<stop  offset="0.196" style="stop-color:#69C3EB"/>
	<stop  offset="0.6037" style="stop-color:#A3D8F1"/>
	<stop  offset="1" style="stop-color:#E1EFF8"/>
</linearGradient>
<path class="st85" d="M128,12.5c0,1.9-1.5,3.4-3.4,3.4s-3.4-1.5-3.4-3.4s1.5-3.4,3.4-3.4S128,10.6,128,12.5z"/>
</svg>
